<?xml version="1.0" encoding="utf-8"?>
<!-- Generator: Adobe Illustrator 27.5.0, SVG Export Plug-In . SVG Version: 6.00 Build 0)  -->
<svg version="1.1" id="Layer_1" xmlns="http://www.w3.org/2000/svg" xmlns:xlink="http://www.w3.org/1999/xlink" x="0px" y="0px"
	 viewBox="0 0 1000 600" style="enable-background:new 0 0 1000 600;" xml:space="preserve">
<g>
	<g>
		<polygon style="fill:#C4AE91;" points="454.668,284.832 469.798,337.771 468.213,338.33 449.358,285.636 		"/>
		<polygon style="fill:#D6C4A5;" points="430.284,312.146 430.778,313.041 481.055,306.533 480.822,305.368 		"/>
		<polygon style="fill:#D6C4A5;" points="433.973,325.636 434.442,326.457 477.315,297.956 477.057,296.716 		"/>
		<polygon style="fill:#D6C4A5;" points="428.376,294.107 440.16,348.226 438.575,348.785 423.127,294.889 		"/>
		<polygon style="fill:#D6C4A5;" points="470.662,279.19 493.73,329.329 492.145,329.888 465.207,280.045 		"/>
		<polygon style="fill:#D6C4A5;" points="445.993,287.892 463.458,340.007 461.873,340.566 440.641,288.711 		"/>
		<path style="fill:#E8AB52;" d="M474.413,279.115c-10.265,5.76-43.902,18.516-52.367,17.76
			c-8.465-0.757-39.074-58.833-38.238-71.519c0.168-2.554,28.836-10.707,30.598-10.259c1.762,0.448,26.689,61.514,33.634,63.52
			c6.945,2.006,25.405-6.288,26.747-5.514C476.129,273.876,474.413,279.115,474.413,279.115z"/>
		<path style="fill:#F9B65D;" d="M474.413,279.115c0,0,1.716-5.239,0.374-6.013c-1.342-0.774-19.802,7.52-26.747,5.514
			c-1.084-0.313-2.606-2.065-4.41-4.801c-0.395,0.086-0.789,0.17-1.186,0.26c-13.32,3.022-24.605,7.598-30.78,12.055
			c4.35,6.327,8.142,10.545,10.382,10.745C430.51,297.631,464.148,284.874,474.413,279.115z"/>
		<path style="fill:#EA792D;" d="M404.419,264.723c-7.596-14.563-12.907-29.072-15.848-42.174c-2.825,1.142-4.722,2.157-4.764,2.807
			c-0.836,12.686,29.773,70.763,38.238,71.519c0.877,0.078,2.038,0.004,3.401-0.184C417.97,287.681,410.754,276.867,404.419,264.723
			z"/>
		<path style="fill:#EA792D;" d="M462.095,279.182c-16.58,5.849-32.921,9.294-47.887,10.485c3.264,4.316,6.047,7.047,7.837,7.207
			c8.465,0.757,42.102-12,52.367-17.76c0,0,1.094-3.347,0.847-5.085C471.007,275.863,466.616,277.588,462.095,279.182z"/>
		<path style="fill:#F9B65D;" d="M414.405,215.096c-1-0.254-10.663,2.262-18.867,4.952c0.838,4.44,2.071,9.069,3.724,13.756
			c8.213,23.284,23.529,39.105,34.207,35.338c2.027-0.715,3.74-2.088,5.131-3.997C428.705,246.575,415.662,215.416,414.405,215.096z
			"/>
		<path style="fill:#E0D0B8;" d="M461.873,340.566l1.585-0.559l-12.33-36.794c-0.429,0.005-0.83,0.085-1.191,0.261
			c-0.996,0.486-1.631,1.603-1.934,3.215L461.873,340.566z"/>
	</g>
	<g>
		<polygon style="fill:#3F2B2F;" points="783.615,217.551 781.336,216.447 634.25,301.91 635.433,304.015 		"/>
		<path style="fill:#A53857;" d="M710.365,223.052c4.385,22.586,31.86,55.104,31.86,55.104s14.358-11.712,27.141-14.4
			c0,0,16.91-14.859,30.176-18.462c0,0,8.253-9.564,18.235-11.321c0,0-17.746-37.879-32.702-54.631c0,0-16.881,15.699-26.64,16.474
			c0,0-10.921,9.351-19.871,11.17c0,0-10.348,9.778-15.141,8.94C719.455,219.698,715.266,221.737,710.365,223.052z"/>
		<g>
			<path style="fill:#8E284F;" d="M758.955,195.752c5.665,6.964,31.999,39.367,39.962,49.726c0.208-0.061,0.418-0.128,0.625-0.184
				c0,0,0.615-0.712,1.707-1.778c-2.388-5.259-4.644-10.885-6.684-16.772c-6.295-18.171-9.196-34.91-8.636-46.414
				c-0.285-0.332-0.571-0.671-0.854-0.988C785.074,179.342,768.78,194.489,758.955,195.752z"/>
			<g>
				<path style="fill:#8E284F;" d="M770.032,263.183c-3.13-12.864-11.083-59.744-12.799-66.385
					c-3.073,2.445-11.5,8.731-18.669,10.188c0,0-0.389,0.367-1.045,0.949c3.091,11.694,24.357,46.497,31.427,55.918
					c0.14-0.032,0.281-0.068,0.421-0.097C769.366,263.755,769.604,263.547,770.032,263.183z"/>
				<path style="fill:#8E284F;" d="M767.445,264.228c-8.58-8.459-35.57-35.441-44.002-48.3c-0.007-0.001-0.014-0.001-0.02-0.002
					c-0.283,0.269-0.57,0.51-0.856,0.762c3.996,11.498,13.613,40.035,17.243,58.504c1.504,1.884,2.415,2.964,2.415,2.964
					S755.188,267.588,767.445,264.228z"/>
			</g>
		</g>
		<path style="fill:#774952;" d="M698.719,264.451l-64.469,37.46l1.183,2.105l66.95-39.065
			C701.262,264.725,700.039,264.558,698.719,264.451z"/>
		<polygon style="fill:#59303A;" points="643.618,323.309 622.492,285.724 629.811,285.143 647.046,318.171 		"/>
		<g>
			<path style="fill:#EA8E3B;" d="M768.558,263.942c0.27-0.064,0.54-0.13,0.808-0.187c0,0,0.314-0.275,0.875-0.748
				c0.189-0.159,0.405-0.341,0.65-0.544c-4.052-19.888-7.163-40.24-9.452-60.998c12.864,14.126,31.389,36.027,37.448,44.021
				c0.219-0.065,0.438-0.134,0.655-0.193c0,0,0.241-0.278,0.681-0.741l-39.195-49.236c-0.174,0.049-0.349,0.099-0.52,0.142
				c-0.718,0.18-1.413,0.305-2.073,0.358c0,0-0.552,0.472-1.503,1.221c2.92,16.153,9.601,51.192,12.028,63.891
				c-13.101-18.996-23.849-37.953-29.678-54.104c-0.24,0.059-0.479,0.115-0.717,0.163c0,0-0.959,0.905-2.424,2.139
				c7.2,15.049,22.596,39.532,30.071,51.178c-14.486-12.775-27.937-27.436-41.015-43.271c-0.125-0.381-0.248-0.755-0.371-1.123
				c-0.504,0.079-0.976,0.092-1.402,0.017c-0.585,0.557-1.178,1.065-1.775,1.549c6.657,17.2,12.793,35.848,17.529,56.92
				c1.58,1.996,2.659,3.296,2.959,3.655c-3.328-11.027-10.593-37.7-15.203-55.566c10.886,11.261,28.237,30.838,38.377,42.396
				C766.395,264.515,767.48,264.199,768.558,263.942z"/>
			<path style="fill:#EA8E3B;" d="M801.961,242.835c-8.25-22.927-13.627-44.385-15.584-61.986c-0.436-0.518-0.871-1.023-1.303-1.507
				c0,0-0.996,0.926-2.636,2.332c3.568,19.207,14.324,52.283,17.83,62.831C800.676,244.078,801.247,243.502,801.961,242.835z"/>
		</g>
		<path style="fill:#E5AF51;" d="M723.702,251.362c-5.481-9.751-9.667-19.354-12.808-29.143c-2.2,1.133-4.624,1.657-7.111,2.324
			c4.677,24.085,33.974,58.761,33.974,58.761s1.451-2.379,4.91-4.755C735.462,270.439,729.52,261.713,723.702,251.362z"/>
		<g>
			<path style="fill:#EA8E3B;" d="M733.715,278.289c2.471,3.155,4.043,5.015,4.043,5.015s1.451-2.379,4.91-4.755
				c-1.255-1.413-2.46-2.853-3.645-4.309C737.362,275.651,735.589,277.004,733.715,278.289z"/>
			<path style="fill:#EA8E3B;" d="M712.583,227.151c-0.59-1.64-1.16-3.283-1.689-4.932c-2.199,1.133-4.624,1.657-7.111,2.324
				c0.349,1.8,0.839,3.66,1.441,5.56C707.674,228.946,710.135,227.962,712.583,227.151z"/>
		</g>
		<g>
			<path style="fill:#A53857;" d="M738.754,244.778c-3.218,1.33,0.516,19.465,4.314,32.714c2.719-2.104,11.682-8.725,20.973-12.163
				C756.328,257.512,741.883,243.485,738.754,244.778z"/>
			<path style="fill:#BC3763;" d="M772.456,222.922c-4.155,1.196-2.832,23.557-0.657,38.795
				c4.635-3.778,15.129-11.811,24.637-15.401C788.634,236.62,776.056,221.885,772.456,222.922z"/>
			<path style="fill:#A53857;" d="M785.605,218.896c2.704-0.765-1.424-20.148-5.531-35.241c-4.252,3.48-10.536,8.172-16.114,10.594
				C771.596,204.609,783.148,219.592,785.605,218.896z"/>
			<path style="fill:#A53857;" d="M756.559,231.266c2.301-0.263,0.425-18.492-1.749-32.618c-3.412,2.506-8.741,6.013-13.823,7.684
				C746.413,216.721,754.511,231.5,756.559,231.266z"/>
			<path style="fill:#BC3763;" d="M743.38,233.517c1.355-0.431-3.513-12.266-8.572-23.298c-2.43,1.948-5.631,4.235-8.337,5.239
				C733.295,223.698,742.091,233.927,743.38,233.517z"/>
			<path style="fill:#BC3763;" d="M725.441,246.01c1.364,0.009-1.935-14.928-5.145-27.496c-2.508,1.795-5.146,3.044-8.024,3.973
				C717.181,232.364,724.185,246.001,725.441,246.01z"/>
			<path style="fill:#BC3763;" d="M793.901,194.293c-4.524,1.541,3.871,30.372,10.113,46.731c3.358-2.791,8.299-6.089,13.762-7.051
				c0,0-10.016-21.378-21.34-39.117C795.325,194.323,794.454,194.105,793.901,194.293z"/>
		</g>
	</g>
	<g>
		
			<rect x="670.523" y="326.718" transform="matrix(0.7739 0.6333 -0.6333 0.7739 378.5557 -362.0412)" style="fill:#A08372;" width="51.693" height="44.969"/>
		<polygon style="fill:#846657;" points="730.701,348.06 691.314,314.566 679.16,329.419 718.547,362.914 		"/>
		
			<rect x="628.116" y="328.402" transform="matrix(0.7739 0.6333 -0.6333 0.7739 370.036 -334.8059)" style="fill:#A08372;" width="51.694" height="44.969"/>
		<polygon style="fill:#846657;" points="688.294,349.744 648.907,316.25 636.753,331.104 676.14,364.598 		"/>
		<polygon style="fill:#846657;" points="704.239,369.094 696.879,362.923 684.324,368.754 699.559,381.148 		"/>
		<polygon style="fill:#846657;" points="691.804,350.312 684.44,344.057 672.289,358.907 687.523,371.26 		"/>
		<polygon style="fill:#846657;" points="652.396,341.188 638.261,329.261 619.102,352.676 648.245,376.347 		"/>
		<path style="fill:#8E8B24;" d="M704.512,354.148c-3.075-7.413,4.541-10.137,4.541-10.137s1.024,3.024,0.053,5.849
			C707.999,353.082,704.512,354.148,704.512,354.148z"/>
		<path style="fill:#999629;" d="M703.977,354.665c2.533-7.728,9.974-4.845,9.974-4.845s-1.205,3.002-3.765,4.545
			C707.265,356.125,703.977,354.665,703.977,354.665z"/>
		<path style="fill:#AAAA31;" d="M701.85,357.691c3.989-7.54,10.813-2.198,10.813-2.198s-1.911,2.618-4.761,3.473
			C704.65,359.942,701.85,357.691,701.85,357.691z"/>
		<path style="fill:#A09D2E;" d="M702.282,357.848c-5.77-5.514,0.203-11.036,0.203-11.036s2.141,2.342,2.357,5.299
			C705.088,355.485,702.282,357.848,702.282,357.848z"/>
		<path style="fill:#842F28;" d="M702.661,357.266c-0.707-0.677-6.863-1.452-10.386,0.126l11.155,9.722
			C704.2,364.869,703.368,357.943,702.661,357.266z"/>
		<path style="fill:#3D171F;" d="M705.518,367.138l-14.031-11.679c0,0-5.553,5.766-6.564,12.869l9.155,7.689
			C700.591,375.2,705.518,367.138,705.518,367.138z"/>
		<path style="fill:#59232D;" d="M692.377,356.199c-2.834,4.508-2.755,9.828,0.419,12.491c3.187,2.673,8.391,1.744,12.244-1.95
			L692.377,356.199z"/>
		<polygon style="fill:#DDC390;" points="642.933,369.858 647.799,348.607 655.267,351.517 650.222,371.719 		"/>
		<polygon style="fill:#C63E4B;" points="636.522,365.764 642.582,340.016 649.805,340.146 643.543,367.93 		"/>
		<polygon style="fill:#CC8F37;" points="630.246,360.107 637.39,334.455 644.792,335.151 637.369,362.853 		"/>
		<path style="fill:#E5AF51;" d="M643.879,337.055c-3.078-0.65-7.427,7.598-9.714,18.423c-0.42,1.989-0.739,3.925-0.965,5.768
			l4.169,1.607l6.873-25.651C644.123,337.146,644.006,337.082,643.879,337.055z"/>
		<path style="fill:#DDC6A6;" d="M692.2,349.321l-43.579-37.588l-32.778,41.24l44.289,36.721L692.2,349.321z M623.259,352.537
			l26.47-33.303l35.192,30.354l-25.897,32.603L623.259,352.537z"/>
		<g>
			<polygon style="fill:#DDC6A6;" points="691.867,310.553 672.581,332.398 676.723,335.971 692.741,317.73 727.95,348.263 
				700.458,381.074 680.677,363.828 677.4,367.954 701.425,389.014 735.461,348.162 			"/>
		</g>
		<g>
			<polygon style="fill:#E2D4BF;" points="649.729,319.234 674.836,340.889 674.488,334.043 648.621,311.732 632.752,331.699 
				632.07,341.452 			"/>
			<polygon style="fill:#E2D4BF;" points="676.279,369.364 675.855,361.002 659.024,382.191 630.854,358.835 630.419,365.057 
				660.132,389.693 			"/>
		</g>
		<polygon style="fill:#E2D4BF;" points="701.479,325.307 727.95,348.263 700.458,381.074 696.641,377.746 696.038,384.291 
			701.425,389.014 735.461,348.162 702.031,319.322 		"/>
		<polygon style="fill:#F2DDB8;" points="645.455,365.065 648.553,351.537 653.307,353.389 650.095,366.249 		"/>
		<g>
			<polygon style="fill:#FF4863;" points="647.549,346.397 648.192,343.544 642.842,343.448 642.309,345.712 			"/>
			<polygon style="fill:#FF4863;" points="638.91,360.149 638.351,362.524 643.553,364.129 644.292,360.853 			"/>
		</g>
	</g>
	<g>
		<polygon style="fill:#D8C5AD;" points="181.54,220.441 121.613,220.583 123.459,277.954 181.256,277.954 		"/>
		<path style="fill:#EADDCC;" d="M175.576,252.818c0,9.494,1.256,18.22,3.356,25.135h2.325l0.282-57.042
			C177.909,228.349,175.576,239.872,175.576,252.818z"/>
		<path style="fill:#EADDCC;" d="M122.95,262.116c9.773-2.511,18.682-14.575,21.356-30.245c0.666-3.903,0.887-7.72,0.723-11.344
			l-23.416,0.055L122.95,262.116z"/>
		<path style="fill:#EADDCC;" d="M177.921,225.943c1.109-1.891,2.258-3.724,3.438-5.502l-27.516,0.065
			c-1.669,10.728-5.993,22.79-12.904,34.577c-5.178,8.832-11.201,16.471-17.49,22.566l0.01,0.305h41.427
			C162.431,264.291,166.888,244.762,177.921,225.943z"/>
		<g>
			<rect x="150.938" y="269.241" style="fill:#775B5D;" width="1.278" height="4.38"/>
			<rect x="150.938" y="224.346" style="fill:#775B5D;" width="1.278" height="4.808"/>
			<polygon style="fill:#775B5D;" points="130.236,248.56 126.369,248.559 126.41,249.838 130.236,249.838 			"/>
			<polygon style="fill:#775B5D;" points="172.915,249.838 177.743,249.837 177.777,248.559 172.915,248.56 			"/>
			<polygon style="fill:#775B5D;" points="129.982,228.51 130.886,227.606 127.281,224.001 125.874,223.997 125.824,223.997 
				125.647,224.174 			"/>
			<polygon style="fill:#775B5D;" points="172.266,270.795 175.007,273.535 176.808,273.529 173.17,269.891 			"/>
			<polygon style="fill:#775B5D;" points="173.156,228.369 177.339,224.176 177.299,224.137 175.576,224.132 172.252,227.465 			"/>
			<polygon style="fill:#775B5D;" points="129.899,269.958 127.139,272.725 127.17,273.71 127.967,273.707 130.804,270.862 			"/>
		</g>
		<g>
			<path style="fill:#775B5D;" d="M127.17,273.71l-1.584-49.714l0.288,0.001l52.543,0.143l-1.296,49.387L127.17,273.71z
				 M126.16,224.554l1.549,48.598l48.871-0.178l1.266-48.279L126.16,224.554z"/>
		</g>
		<polygon style="fill:#513D40;" points="151.523,247.798 150.194,249.214 151.577,250.597 152.96,249.228 		"/>
		<polygon style="fill:#513D40;" points="166.449,231.119 152.581,247.112 153.936,248.064 168.002,232.511 		"/>
		<polygon style="fill:#513D40;" points="165.067,259.02 153.931,249.673 152.979,251.028 163.675,260.573 		"/>
	</g>
	<g>
		<g>
			<path style="fill:#89893A;" d="M721.626,440.504c-0.096-2.389-4.214-5.697-8.782,1.103l1.434,4.961
				C718.657,446.568,721.722,442.892,721.626,440.504z"/>
			<path style="fill:#AAA541;" d="M721.626,440.504c-0.078-1.951-2.839-4.508-6.336-1.681c-0.145,2.08,0.723,3.917,2.325,4.506
				c1.106,0.406,2.328,0.121,3.389-0.638C721.427,441.933,721.653,441.168,721.626,440.504z"/>
			<path style="fill:#89893A;" d="M701.577,442.341c-2.676-1.286-7.453-1.103-8.069,3.124c-0.616,4.227,8.462,3.491,8.462,3.491
				L701.577,442.341z"/>
			<path style="fill:#AAA541;" d="M698.055,442.743c0-0.373-0.047-0.735-0.124-1.085c-2.078,0.134-4.043,1.199-4.423,3.807
				c-0.136,0.935,0.218,1.616,0.827,2.127C696.474,447.006,698.055,445.069,698.055,442.743z"/>
			<path style="fill:#AAA541;" d="M705.962,431.683c-8.408,2.021-7.536,20.581-0.671,32.526l5.69-0.184
				C717.067,448.222,714.37,429.662,705.962,431.683z"/>
			<path style="fill:#89893A;" d="M710.612,457.322c-4.114,0.57-8.43-6.047-9.64-14.779c-0.223-1.609-0.323-3.176-0.315-4.668
				c-1.941,6.954-0.051,18.182,4.634,26.333l5.69-0.184c1.061-2.756,1.85-5.595,2.393-8.395
				C712.586,456.579,711.657,457.177,710.612,457.322z"/>
			<path style="fill:#4F2B2F;" d="M719.484,461.819c-1.642-0.912-23.351-1.277-24.263,0.182c-0.912,1.459,2.372,19.155,2.372,19.884
				l22.073-0.73C719.667,481.156,721.126,462.732,719.484,461.819z"/>
			<path style="fill:#683C42;" d="M719.461,461.81c-1.496-0.764-17.081-1.138-22.458-0.362c0.053,0.305,0.098,0.608,0.163,0.914
				c1.963,9.265,8.428,15.743,14.441,14.469C716.725,475.747,719.851,469.391,719.461,461.81z"/>
			<path style="fill:#875059;" d="M712.37,469.299c2.987,0,5.483-2.702,6.127-6.323c-1.019-0.441-6.733-0.747-12.36-0.768
				C706.542,466.208,709.175,469.299,712.37,469.299z"/>
		</g>
		<path style="fill:#B52439;" d="M753.596,520.419l29.367,1.972l2.24,17.747h-33.473
			C751.729,540.137,746.752,520.419,753.596,520.419z"/>
		<path style="fill:#D83948;" d="M752.999,520.419l-47.485,1.972c-1.649-0.135-1.85,2.32-0.201,2.455l-2.616,11.938
			c-1.755-0.421-2.56,2.932-0.805,3.353h54.125C756.018,540.137,764.066,520.419,752.999,520.419z"/>
		<path style="fill:#B29A8A;" d="M591.685,485.504c1.372,0,13.616,0,31.065,0c-4.655,7.071-9.199,47.734-4.23,54.805
			c-18.23,0-30.561,0-30.561,0C580.07,540.309,586.425,485.504,591.685,485.504z"/>
		<path style="fill:#A58C7F;" d="M587.863,493.713c1.191-4.933,2.538-8.209,3.822-8.209c1.372,0,13.616,0,31.065,0
			c-3.416,5.189-6.766,28.453-6.348,43.272L587.863,493.713z"/>
		<path style="fill:#999B42;" d="M742.067,426.655c-2.683-5.097,0.805-6.17,0.805-6.17c-11.536-9.926-1.341-11.268,1.61-9.658
			c-2.281-4.561-5.366-13.146-3.756-16.365c1.61-3.219,3.756,0.537,3.756,0.537s-4.561-9.926-3.219-12.341
			c1.341-2.415,2.414-2.683,2.414-2.683s-3.756-12.877-2.414-15.56c1.341-2.683,3.219,0,3.219,0s-1.342-18.779,0.268-22.535
			c1.609-3.756,3.756-4.292,3.756-4.292c0.268-11.536,6.17-40.51,17.438-35.681s10.195,37.559-2.951,54.192
			c-9.938,12.574-11.442,24.682-11.585,29.846c0.203-1.531,0.952-3.061,3.268-2.482c4.293,1.073,1.341,28.438,1.341,28.438
			s6.975-6.439,11.536-4.561c3.975,1.637-4.889,7.757-7.23,9.301c0.724-0.402,2.101-0.909,3.742-0.18
			c2.414,1.073-6.707,7.243-6.707,7.243s1.073-0.805,3.219-0.268c2.146,0.537-1.341,4.293-1.341,4.293
			c3.488-1.073,3.488,6.707-11.268,14.487c0,0-2.683-1.341-6.707-7.78C737.238,427.997,742.067,426.655,742.067,426.655z"/>
		<path style="fill:#898936;" d="M741.01,410.287c1.304-0.12,2.661,0.097,3.472,0.539c-0.2-0.4-0.408-0.841-0.617-1.297
			c0.616,0.21,1.207,0.234,1.739,0.023c2.299-0.912,2.646-5.697,0.774-10.688c-0.765-2.041-1.784-3.793-2.877-5.097
			c0.581,0.536,0.98,1.231,0.98,1.231s-0.515-1.125-1.145-2.697c0.183,0.027,0.365,0.033,0.547,0.012
			c3.008-0.353,4.654-7.372,3.679-15.677c-0.726-6.177-2.699-11.321-4.899-13.408c0.966-0.025,1.818,1.187,1.818,1.187
			s-0.306-4.286-0.45-9.172c1.365,1.111,2.84,1.924,4.413,2.38c10.461,3.027,21.221-10.651,24.033-30.551
			c0.62-4.383,0.8-8.702,0.596-12.806c2.099,12.363-1.282,30.699-10.081,41.833c-9.938,12.574-11.442,24.682-11.585,29.846
			c0.111-0.837,0.398-1.661,1.003-2.153c-0.411,1.181-0.712,2.502-0.859,3.914c-0.561,5.388,1.049,14.275,3.895,14.571
			c0.452,0.047,0.907-0.145,1.356-0.49c-0.289,5.507-0.786,10.114-0.786,10.114s0.923-0.848,2.307-1.837
			c-0.726,0.852-1.406,1.796-2.008,2.835c-3.539,6.107-5.474,14.075-1.507,16.373c1.185,0.686,4.842-0.27,6.28-0.481
			c0.409,2.332-2.584,7.87-13.121,13.426c0,0-2.683-1.341-6.707-7.78c-0.096-0.153-0.163-0.29-0.249-0.438
			c0.339,0.061,0.679,0.102,1.02,0.102c4.501,0,7.368-5.45,6.405-12.173C747.654,416.445,744.564,411.812,741.01,410.287z"/>
		<path style="fill:#563624;" d="M742.067,438.325c5.232-2.549,18.914,0.402,25.218,5.232l-33.669,0.939
			C733.616,444.496,736.836,440.874,742.067,438.325z"/>
		<path style="fill:#7F4E5B;" d="M730.531,441.411c2.414-0.268,38.9-1.073,39.705,0.268c0.805,1.341-2.146,40.778-2.146,40.778
			l-37.827,0.537C730.263,482.994,728.117,441.679,730.531,441.411z"/>
		<path style="fill:#683E4B;" d="M742.47,476.018c13.62,0,24.696-15.501,25.067-34.819c1.586,0.115,2.575,0.271,2.7,0.48
			c0.805,1.341-2.146,40.778-2.146,40.778l-37.827,0.537c0,0-0.27-5.204-0.51-11.922
			C733.482,474.211,737.827,476.018,742.47,476.018z"/>
		<path style="fill:#D6C7AB;" d="M581.368,544.966c0,0,215.428,0,222.135,0c6.707,0,6.707-64.119-1.341-64.119
			c-8.048,0-209.794,0-216.233,0C579.49,480.848,571.71,544.966,581.368,544.966z M592.222,486.75c5.021,0,162.332,0,168.608,0
			c6.276,0,6.276,52.314,1.046,52.314c-5.23,0-173.21,0-173.21,0C581.135,539.064,587.201,486.75,592.222,486.75z"/>
		<path style="fill:#BFA89B;" d="M769.582,480.848c18.147,0,30.694,0,32.58,0c8.048,0,8.048,64.119,1.341,64.119
			c-1.552,0-14.312,0-32.959,0C774.499,532.842,774.372,492.972,769.582,480.848z"/>
		<path style="fill:#9E6778;" d="M731.623,443.29c2.506-0.088,6.435-0.186,10.832-0.256c-0.154,9.932-2.517,17.827-5.418,17.827
			C734.161,460.861,731.813,453.101,731.623,443.29z"/>
		<path style="fill:#D3B994;" d="M705.003,524.893l40.451-1.28c8.738,0,2.383,13.06,2.383,13.06h-45.238L705.003,524.893z"/>
		<path style="fill:#931B32;" d="M745.823,525.985c0-0.788-0.028-1.567-0.068-2.342c8.248,0.326,2.083,13.03,2.083,13.03h-3.325
			C745.362,533.302,745.823,529.712,745.823,525.985z"/>
		<path style="fill:#B29A8A;" d="M769.582,480.848c18.147,0,30.694,0,32.58,0c1.413,0,2.577,1.981,3.501,5.239
			c-2.369-0.728-4.758-0.954-7.127-0.59c-15.547,2.389-24.503,28.693-20.608,59.469c-2.343,0-4.8,0-7.383,0
			C774.499,532.842,774.372,492.972,769.582,480.848z"/>
		<path style="fill:#EDD6AE;" d="M741.128,536.515c0,0.054-0.019,0.105-0.021,0.159h-38.508l1.985-9.728
			c2.91-0.397,6.037-0.625,9.313-0.625C728.937,526.321,741.128,530.885,741.128,536.515z"/>
		<g>
			<path style="fill:#E8DAC4;" d="M707.679,486.75c-29.824,0-66.479,0-91.087,0l-1.903-5.902c23.799,0,58.252,0,91.087,0
				L707.679,486.75z"/>
			<path style="fill:#E8DAC4;" d="M633.462,539.064c31.941,0,68.78,0,91.087,0l1.903,5.902c-27.911,0-61.562,0-91.087,0
				L633.462,539.064z"/>
		</g>
		<path style="fill:#AAAA44;" d="M773.655,320.254c-3.833,11.408-10.474,19.027-16.333,17.859
			c-3.776-0.753-6.442-5.016-7.647-11.151c2.249-12.884,7.709-28.725,16.27-25.056C770.814,303.993,773.373,311.295,773.655,320.254
			z"/>
	</g>
	<g>
		<polygon style="fill:#772639;" points="220.9,396.173 218.474,537.948 223.73,537.948 222.922,392.064 		"/>
		<polygon style="fill:#B7344D;" points="242.733,544.938 199.472,544.938 202.707,533.604 241.924,535.304 		"/>
		<path style="fill:#EDD6C3;" d="M239.891,409.873c-12.508,4.028-38.409,0-38.409,0l-3.628-259.532c0,0,44.108,6.33,46.946,7.481
			C247.638,158.973,239.891,409.873,239.891,409.873z"/>
		<path style="fill:#F2E5DA;" d="M197.855,150.34c0,0,44.108,6.33,46.945,7.481c1.657,0.672-0.295,86.509-2.207,157.819
			c-7.201,7.016-14.842,10.243-22.4,8.631c-7.844-1.673-14.674-8.341-20.168-18.68L197.855,150.34z"/>
		<path style="fill:#F2E5DA;" d="M201.483,409.873l-0.492-35.224c10.457-26.872,27.432-42.392,40.989-36.486
			c-1.123,40.471-2.088,71.71-2.088,71.71C227.383,413.901,201.483,409.873,201.483,409.873z"/>
		<path style="fill:#E0C0A9;" d="M222.922,158.842l0.763,252.818c-11.151-0.069-22.202-1.787-22.202-1.787l-3.628-259.532
			c0,0,24.283,3.485,37.971,5.754C229.081,157.445,222.922,158.842,222.922,158.842z"/>
		<path style="fill:#E5CBBA;" d="M198.76,215.122c9.441,8.546,14.732,33.762,20.927,68.21l0.387,128.308
			c-11.151-0.07-18.592-1.767-18.592-1.767L198.76,215.122z"/>
		<path style="fill:#D1AA90;" d="M208.671,410.767c-1.5-0.156-2.816-0.311-3.909-0.448l-1.247-248.267
			C203.515,162.053,210.419,335.709,208.671,410.767z"/>
	</g>
	<g>
		<path style="fill:#B7293E;" d="M335.471,355.217c5.692,3.415,35.793,39.92,56.46,43.939c8.196,1.594-0.911,24.815-5.692,27.775
			c-4.781,2.96-36.881-8.196-46.215-23.904C330.69,387.317,335.471,355.217,335.471,355.217z"/>
		<path style="fill:#D83948;" d="M391.931,399.155c-17.634-3.429-42.125-30.495-52.472-40.49
			c-2.268,9.576,3.974,21.735,13.315,32.75c12.957,15.279,29.108,21.726,39.017,13.323c1.116-0.947,2.053-2.048,2.858-3.248
			C394.139,400.259,393.269,399.415,391.931,399.155z"/>
		<path style="fill:#A3213A;" d="M341.162,372.747l-4.098,17.074l6.655,18.039c10.804,11.621,32.589,19.729,40.316,19.538
			C354.111,411.259,341.162,372.747,341.162,372.747z"/>
		<path style="fill:#D83948;" d="M317.486,480.43c-37.033-25.498-47.05-67.995-47.353-76.191
			c-0.304-8.196,2.428-40.372,4.553-42.193c2.125-1.821,29.141-11.838,32.783-12.142c3.642-0.303,26.409,3.035,30.051,6.678
			c3.643,3.643,9.714,32.783,13.963,46.443c4.25,13.66,24.284,42.8,24.284,42.8l-29.748,26.409L317.486,480.43z"/>
		<g>
			<path style="fill:#B7293E;" d="M359.195,458.972c-41.919-42.598-37.863-99.163-37.818-99.73l1.778,0.144
				c-0.045,0.559-4.021,56.335,37.311,98.336L359.195,458.972z"/>
		</g>
		<path style="fill:#B7293E;" d="M353.001,403.481c-1.56-5.014-4.883-12.57-6.724-19.729c4.631,29.592,26.075,54.333-6.481,63.44
			c-18.466,5.165-45.745-21.824-53.273-54.411c-2.518-10.901-16.695,3.263-16.391,11.459c0.303,8.196,10.321,50.693,47.353,76.191
			l28.533-8.196l31.341-26.636C377.36,445.598,357.25,417.141,353.001,403.481z"/>
		<path style="fill:#A3213A;" d="M287.229,441.08c6.8-24.021-3.951-62.191-3.951-62.191s-12.295,19.57-11.246,38.442
			C273.081,436.203,287.229,441.08,287.229,441.08z"/>
		<path style="fill:#492BAA;" d="M485.499,545.541H319.762c0,0,88.332-99.26,150.256-110.188
			C531.942,424.426,575.653,442.183,485.499,545.541z"/>
		<path style="fill:#7649CE;" d="M472.762,434.887c-1.707,4.771-3.132,9.813-4.202,15.084c-7.4,36.474,4.581,69.69,26.762,74.19
			c2.519,0.511,5.062,0.611,7.6,0.366C568.178,441.143,528.788,425.698,472.762,434.887z"/>
		<path style="fill:#D8D0C5;" d="M386.012,395.285c-4.326-1.138-13.204,4.553-13.204,4.553l2.049,2.96l-2.96-0.228
			c-5.691,11.156,1.594,24.815,1.594,24.815s7.513,1.594,12.749-0.455l11.611-22.766
			C397.85,404.164,390.337,396.423,386.012,395.285z"/>
		<path style="fill:#FFA77B;" d="M391.389,398.668c9.907-0.172,45.519,5.278,48.615,8.008c3.096,2.729-0.49,8.957-6.538,12.338
			c-4.153,2.321-47.911,10.56-52.288,7.8C374.275,422.461,370.448,399.032,391.389,398.668z"/>
		<path style="fill:#EA875C;" d="M411.054,416.457c-18.277,0.794-29.519-5.257-29.792-11.538c-0.074-1.702,0.975-3.36,2.862-4.894
			c-12.552,5.092-8.901,23.034-2.946,26.789c4.377,2.76,48.135-5.479,52.288-7.8c4.611-2.578,7.78-6.806,7.659-9.881
			C435.209,412.165,421.897,415.986,411.054,416.457z"/>
		<path style="fill:#D8D0C5;" d="M357.099,455.388c0,0,54.638-35.212,66.021-42.042c5.091-3.054,19.579,31.569,19.579,32.935
			c0,1.366-50.996,37.792-50.996,37.792L357.099,455.388z"/>
		<path style="fill:#D8D0C5;" d="M483.526,545.655h-26.953c0,0-4.09-7.399-2.412-11.042
			C455.839,530.971,483.526,545.655,483.526,545.655z"/>
		<path style="fill:#EFE7DC;" d="M417.656,421.238c5.254-16.716,30.962-12.294,35.97-3.643c5.009,8.651,6.602,117.473,6.602,117.473
			l-4.326,1.366C455.903,536.435,412.648,437.175,417.656,421.238z"/>
		<path style="fill:#D83948;" d="M260.722,449.165c-26.086-33.934,10.992-87.018,14.876-88.026
			c3.884-1.008,10.723,21.167,9.527,31.246c-1.196,10.079-3.88,25.534-2.332,30.91C284.341,428.67,260.722,449.165,260.722,449.165z
			"/>
		<path style="fill:#B7293E;" d="M282.734,411.545c-3.428,7.761-8.758,9.194-12.601,8.935c-6.774-0.457-12.676-10.828-9.79-30.203
			c0.561-3.768,1.46-7.469,2.589-10.986c-9.766,18.74-18.869,48.203-2.21,69.874c0,0,23.619-20.495,22.072-25.87
			C282.107,420.911,282.255,416.544,282.734,411.545z"/>
		<path style="fill:#FFA77B;" d="M274.21,423.957c10.989-2.494,62.576,10.192,65.496,13.453c2.92,3.261-4.883,12.932-9.32,15.549
			c-4.437,2.617-54.953,3.917-61.353,3.205c-6.4-0.711-11.899-13.416-10.098-17.967S271.235,424.632,274.21,423.957z"/>
		<path style="fill:#FFA77B;" d="M330.083,434.443c11.535-3.642,22.614-0.607,25.194,1.366c2.58,1.973,5.691,16.278,5.691,16.278
			l-31.797,1.176L330.083,434.443z"/>
		<path style="fill:#EA875C;" d="M328.689,453.094c-21.634,2.957-42.626-3.404-46.886-14.208
			c-2.002-5.077,0.049-10.231,5.029-14.576c-5.587-0.7-10.144-0.915-12.623-0.352c-2.975,0.675-13.473,9.69-15.274,14.241
			c-1.801,4.551,3.698,17.256,10.098,17.967c6.4,0.711,56.916-0.589,61.353-3.205c0.076-0.045,0.159-0.107,0.237-0.156
			C329.986,452.907,329.341,453.005,328.689,453.094z"/>
		<path style="fill:#D8D0C5;" d="M283.033,421.542c-14.57,0.152-30.658,12.749-30.658,12.749l3.491,9.107l13.053-0.304
			c0,0,8.803-17.454,15.784-19.275L283.033,421.542z"/>
		<path style="fill:#7649CE;" d="M445.431,545.541c0,0-120.205,0-161.184,0s-75.583-94.707-45.988-112.92
			C267.855,414.409,445.431,545.541,445.431,545.541z"/>
		<path style="fill:#5C34BF;" d="M319.831,462.089c12.914,27.604,14.376,51.557,1.639,59.548
			c-17.322,10.867-54.32-11.899-82.636-50.851c-4.223-5.808-8.003-11.647-11.34-17.417c-3.601,33.918,24.612,92.171,56.752,92.171
			c40.979,0,161.184,0,161.184,0S378.393,496.041,319.831,462.089z"/>
		<path style="fill:#EFE7DC;" d="M455.448,537.801c-91.064-29.141-122.026-63.745-127.945-70.575
			c-5.919-6.83,13.204-28.23,23.677-25.953c10.472,2.277,104.724,93.341,104.724,93.341L455.448,537.801z"/>
		<path style="fill:#D8D0C5;" d="M393.333,509.225c-26.465-21.694-58.242-41.544-46.752-67.673
			c-10.553,2.929-24.204,19.759-19.079,25.674c4.733,5.461,25.514,28.68,80.19,52.664
			C402.872,516.662,398.065,513.104,393.333,509.225z"/>
		<path style="fill:#B7293E;" d="M290.394,370.925c21.493,0,39.962-5.277,48.12-12.835c-0.347-0.668-0.681-1.195-0.994-1.508
			c-3.642-3.643-26.409-6.982-30.051-6.678c-3.246,0.27-25.03,8.247-31.248,11.272c-0.214-0.066-0.422-0.09-0.622-0.038
			c-0.881,0.229-3.477,3.158-6.65,7.915C275.5,370.253,282.753,370.925,290.394,370.925z"/>
		<polygon style="fill:#D8D0C5;" points="290.622,355.558 293.581,368.421 311.111,361.136 332.056,361.136 325.869,352.451 
			307.013,348.387 		"/>
		<path style="fill:#FFA77B;" d="M324.315,382.536c0,0,3.19-19.473,1.554-30.085c-7.571-1.651-16.267-2.724-18.401-2.547
			c-1.677,0.14-8.306,2.338-15.179,4.847C313.617,374.122,324.315,382.536,324.315,382.536z"/>
		<path style="fill:#EA875C;" d="M307.469,349.905c-1.677,0.14-8.306,2.338-15.179,4.847c6.29,5.713,11.631,10.449,16.07,14.321
			c6.703-0.655,12.792-2.072,17.83-4.043c0.233-4.477,0.228-9.024-0.32-12.578C318.299,350.8,309.602,349.727,307.469,349.905z"/>
		<path style="fill:#754530;" d="M295.402,342.164l4.781-13.204l17.075-19.579c0,0,11.155-10.928,9.334-16.847
			c-1.821-5.919-3.87-7.513-3.87-7.513s3.87-14.57-1.138-15.026c-5.009-0.455-11.383,6.602-11.383,6.602s0.683-8.196-10.017-3.415
			c-10.7,4.781-16.619,17.075-15.708,21.628c0.911,4.553,2.504,5.236,2.504,5.236s-5.692,1.821-6.375,6.147
			c-0.683,4.326,3.87,8.879,3.87,8.879s-3.506,2.868,0.228,6.602C288.8,325.773,295.402,342.164,295.402,342.164z"/>
		<path style="fill:#5B3224;" d="M294.399,296.302c-3.502-6.751-1.757-15.129,3.712-22.063
			c-9.383,5.334-14.486,16.322-13.637,20.572c0.911,4.553,2.504,5.236,2.504,5.236s-5.692,1.821-6.375,6.147
			c-0.683,4.326,3.87,8.879,3.87,8.879s-3.506,2.868,0.228,6.602c4.098,4.098,10.7,20.489,10.7,20.489l4.781-13.204l17.075-19.579
			c0,0,1.91-1.88,4.018-4.489C309.922,307.957,298.772,304.732,294.399,296.302z"/>
		<g>
			<path style="fill:#5B3224;" d="M324.376,287.221c-0.949-1.644-1.654-2.2-1.654-2.2s2.369-8.961,0.969-13.041
				c-0.907,11.507-3.587,15.735-8.71,20.06C314.981,292.041,319.877,290.059,324.376,287.221z"/>
			<path style="fill:#5B3224;" d="M308.333,281.795c0,0,3.355-4.151,5.919-8.845c-2.34,1.76-4.052,3.648-4.052,3.648
				s0.214-2.738-1.67-4.123C308.845,277.855,308.333,281.795,308.333,281.795z"/>
		</g>
		<path style="fill:#DD704A;" d="M296.085,353.547c0-0.911-2.049-27.319-2.049-27.319l17.985-2.504l9.789,28.685
			c0,0-4.415,5.596-6.602,6.147C310.417,359.763,296.085,353.547,296.085,353.547z"/>
		<path style="fill:#FFA77B;" d="M296.541,297.77c-0.823,2.797,0.683,22.083,0.228,23.677c-0.455,1.594-2.732,4.781-2.732,4.781
			s5.919,16.619,9.107,18.896c3.187,2.276,24.132,1.138,24.587-1.138c0.455-2.277-6.83-47.353-8.651-49.402
			C317.258,292.534,297.679,293.9,296.541,297.77z"/>
		<path style="fill:#FFA77B;" d="M297.907,334.185c-10.928,0.359-15.481-8.44-13.432-10.774c2.049-2.334,8.196-0.898,9.562,1.975
			C295.402,328.26,297.907,334.185,297.907,334.185z"/>
		<path style="fill:#EFE7DC;" d="M470.246,545.655h-21.413c0,0-0.924-7.399,1.555-11.042
			C452.866,530.971,470.246,545.655,470.246,545.655z"/>
		<path style="fill:#CC4F46;" d="M291.466,328.83c0.458-0.521,1.325-0.651,2.205-0.525c-0.298-0.673-0.591-1.323-0.828-1.821
			c-0.837-1.761-4.605-2.642-5.861-1.211c-1.028,1.171,0.66,4.994,4.98,6.223C291.198,330.423,291.027,329.33,291.466,328.83z"/>
		<path style="fill:#FFA77B;" d="M433.593,404.619c7.088,0.182,13.432,1.821,16.164,5.009c2.732,3.187,5.008,8.196,5.236,9.562
			c0.228,1.366-15.709,2.504-22.311,0.683C426.08,418.051,424.714,404.392,433.593,404.619z"/>
		<path style="fill:#FFA77B;" d="M434.731,412.397l-1.9-0.373c-2.347-0.461-4.266,1.821-3.442,4.067
			c2.509,6.841,2.414,15.984,2.762,16.796c0.455,1.063,5.16,1.67,5.767,0.303C438.525,431.825,437.463,416.799,434.731,412.397z"/>
		<path style="fill:#FFA77B;" d="M444.447,413.558l-2.641-0.365c-2.054-0.284-3.665,1.815-2.783,3.692
			c3.162,6.73,3.599,16.459,4.005,17.276c0.515,1.035,5.246,1.375,5.775-0.023C449.332,432.74,447.423,417.798,444.447,413.558z"/>
		<path style="fill:#FFA77B;" d="M451.775,412.623l-3.005-0.16c-1.879-0.1-3.142,1.974-2.12,3.553
			c3.836,5.926,5.223,14.833,5.71,15.553c0.615,0.909,5.377,0.877,5.77-0.44C458.522,429.812,455.161,416.285,451.775,412.623z"/>
		<path style="fill:#FFA77B;" d="M420.289,424.58c-0.974-8.019,1.768-16.692,4.825-18.076c3.057-1.384,6.598,3.108,6.759,5.041
			c0.161,1.933-3.637,2.437-4.385,4.668c-0.747,2.231-1.172,7.861-1.422,9.201C425.816,426.753,420.457,425.955,420.289,424.58z"/>
		<g>
			<path style="fill:#754530;" d="M323.85,301.959l-8.046-1.569c-0.677-0.132-1.309,0.368-1.413,1.116l-0.389,2.824
				c-0.103,0.749,0.361,1.463,1.038,1.595l8.047,1.569c0.676,0.132,1.308-0.368,1.412-1.116l0.39-2.824
				C324.992,302.805,324.527,302.091,323.85,301.959z"/>
			<path style="fill:#D27558;" d="M312.277,312.388c4.287,6.727,4.817,13.522,4.817,13.522s-2.836,1.655-4.41,1.548l0.006,0.152
				l6.898-0.748C319.588,326.862,318.193,319.848,312.277,312.388z"/>
			<path style="fill:#3F3333;" d="M320.934,311.261c-0.53,0.18-1.121,0.318-1.752,0.393c-0.803,0.096-1.559,0.073-2.231-0.03
				c-0.188,0.725-0.232,1.584-0.076,2.488c0.379,2.2,1.75,3.785,3.062,3.541c1.312-0.245,2.068-2.227,1.689-4.427
				C321.497,312.481,321.249,311.817,320.934,311.261z"/>
			<path style="fill:#3F3333;" d="M307.671,311.739c-0.392,0.346-0.838,0.679-1.339,0.979c-1.055,0.63-2.128,0.999-3.026,1.096
				c0.014,0.24,0.034,0.482,0.074,0.727c0.37,2.289,1.744,3.895,3.071,3.589c1.326-0.307,2.102-2.411,1.732-4.7
				C308.082,312.805,307.901,312.238,307.671,311.739z"/>
			<g>
				<path style="fill:#D27558;" d="M306.856,332.204c-2.688-2.044-2.962-5.06-2.973-5.188c-0.042-0.525,0.353-0.972,0.869-1.023
					c0.523-0.042,0.981,0.347,1.023,0.87c0.002,0.018,0.236,2.331,2.254,3.848c1.844,1.387,4.595,1.743,8.18,1.058
					c0.514-0.098,1.012,0.239,1.11,0.754C317.399,332.947,309.146,333.945,306.856,332.204z"/>
			</g>
			<path style="fill:#D27558;" d="M319.081,340.377c-0.074-1.247-0.513-2.235-0.98-2.207s-0.787,1.061-0.713,2.308
				c0.074,1.247,0.513,2.235,0.98,2.207C318.836,342.657,319.155,341.624,319.081,340.377z"/>
			<path style="fill:#754530;" d="M305.096,303.534l-7.991,3.406c-0.672,0.286-0.983,1.08-0.696,1.772l1.084,2.613
				c0.288,0.693,1.066,1.023,1.738,0.737l7.992-3.405c0.672-0.286,0.983-1.08,0.696-1.773l-1.084-2.614
				C306.546,303.578,305.768,303.248,305.096,303.534z"/>
		</g>
	</g>
	<ellipse style="fill:#EFA441;" cx="493.777" cy="548.277" rx="400.075" ry="4.596"/>
	<g>
		<g>
			<g>
				<path style="fill:#E24450;" d="M650.02,157.845l64.746,16.396c24.575,6.223,49.63-8.706,55.854-33.281
					s-8.707-49.63-33.281-55.853c-1.508-0.382-3.041,0.531-3.422,2.039c-0.382,1.508,0.531,3.041,2.039,3.423
					c21.563,5.461,34.663,27.445,29.202,49.008c-5.461,21.563-27.445,34.663-49.008,29.202l-64.746-16.396
					c-1.508-0.382-3.04,0.531-3.422,2.039C647.599,155.931,648.512,157.463,650.02,157.845z"/>
			</g>
			<polygon style="fill:#E24450;" points="746.054,75.554 739.108,102.987 723.668,84.481 			"/>
		</g>
		<g>
			<g>
				<path style="fill:#E24450;" d="M462.099,213.742c1.508,0.382,3.04-0.531,3.422-2.039c0.382-1.508-0.531-3.041-2.039-3.423
					c-21.563-5.461-34.663-27.445-29.202-49.008c5.46-21.562,27.445-34.662,49.008-29.202l64.746,16.396
					c1.508,0.382,3.041-0.531,3.423-2.039c0.382-1.508-0.531-3.041-2.039-3.423l-64.746-16.396
					c-24.574-6.223-49.63,8.707-55.853,33.281C422.595,182.463,437.524,207.518,462.099,213.742z"/>
			</g>
			<polygon style="fill:#E24450;" points="453.383,223.295 460.33,195.862 475.769,214.368 			"/>
		</g>
		<path style="fill:#343838;" d="M565.626,90.532l139.852,35.416c7.427,1.881,11.923,9.426,10.042,16.853l-75.221,297.037
			c-1.881,7.427-9.426,11.923-16.853,10.042l-139.852-35.416c-7.427-1.881-11.923-9.426-10.042-16.853l75.221-297.036
			C550.654,93.147,558.2,88.651,565.626,90.532z"/>
		<path style="fill:#575D5E;" d="M550.087,86.597l139.852,35.416c7.427,1.881,11.923,9.426,10.042,16.853L624.76,435.902
			c-1.881,7.427-9.426,11.923-16.853,10.042l-139.852-35.416c-7.427-1.881-11.923-9.426-10.042-16.853l75.221-297.037
			C535.115,89.212,542.66,84.716,550.087,86.597z"/>
		<path style="fill:#667A7C;" d="M689.939,122.013c7.427,1.881,11.923,9.426,10.042,16.853l-14.865,58.698
			c-17.939-3.519-36.619-11.294-54.061-23.348c-31.771-21.957-51.732-52.774-55.714-81.223L689.939,122.013z"/>
		<path style="fill:#667A7C;" d="M527.916,148.229c3.733,83.832,62.887,149.95,132.229,147.944l-34.676,136.93
			c-15.018-68.607-67.965-118.75-128.628-116.729c-6.804,0.227-13.45,1.11-19.906,2.582l54.207-214.054
			C528.407,118.696,527.248,133.237,527.916,148.229z"/>
		
			<rect x="501.177" y="121.28" transform="matrix(-0.9694 -0.2455 0.2455 -0.9694 1072.3892 672.9907)" style="fill:#343838;" width="153.926" height="296.754"/>
		<path style="fill:#90AEAF;" d="M594.247,105.306l35.997,9.116c1.723,0.436,2.765,2.186,2.329,3.909l-0.117,0.463
			c-0.436,1.723-2.186,2.765-3.909,2.329l-35.997-9.116c-1.723-0.436-2.765-2.186-2.329-3.909l0.117-0.463
			C590.775,105.912,592.525,104.87,594.247,105.306z"/>
		<path style="fill:#343838;" d="M594.827,106.449l36.156,9.156c1.592,0.403,2.555,2.02,2.152,3.612l0,0
			c-0.403,1.592-2.02,2.555-3.612,2.152l-36.156-9.156c-1.592-0.403-2.555-2.02-2.152-3.612l0,0
			C591.618,107.01,593.235,106.046,594.827,106.449z"/>
		
			<rect x="471.946" y="377.614" transform="matrix(-0.9694 -0.2455 0.2455 -0.9694 980.1032 911.9255)" style="fill:#E24450;" width="149.884" height="34.526"/>
		
			<rect x="513.1" y="136.796" transform="matrix(-0.9694 -0.2455 0.2455 -0.9694 1084.5629 641.7966)" style="fill:#FFFFFF;" width="138.365" height="233.011"/>
		
			<rect x="652.584" y="161.744" transform="matrix(-0.9694 -0.2454 0.2454 -0.9694 1256.853 496.5855)" style="fill:#BC3958;" width="13.561" height="16.49"/>
		
			<rect x="636.292" y="157.358" transform="matrix(-0.9694 -0.2454 0.2454 -0.9694 1225.8405 483.9536)" style="fill:#F9B443;" width="13.561" height="16.49"/>
		
			<rect x="550.717" y="134.533" transform="matrix(-0.9694 -0.2457 0.2457 -0.9694 1064.2828 406.6198)" style="fill:#BC3958;" width="13.572" height="4.788"/>
		
			<rect x="548.717" y="141.533" transform="matrix(-0.9694 -0.2457 0.2457 -0.9694 1058.6244 419.9139)" style="fill:#BC3958;" width="13.572" height="4.788"/>
		
			<rect x="546.717" y="148.533" transform="matrix(-0.9694 -0.2457 0.2457 -0.9694 1052.9661 433.208)" style="fill:#BC3958;" width="13.572" height="4.788"/>
		<g>
			<path style="fill:#BC3958;" d="M537.912,255.2c5.542-19.735,21.737-32.953,42.028-28.342
				c20.291,4.611,48.598,13.092,38.866,47.749c-9.732,34.657-30.766,32.694-48.857,28.583
				C551.857,299.079,530.545,281.434,537.912,255.2z"/>
			<path style="fill:#CC335F;" d="M584.195,252.916c13.413,3.048,26.198,3.062,35.583,0.625
				c-4.631-17.504-24.515-23.201-39.839-26.683c-12.068-2.742-22.686,0.823-30.477,8.314
				C555.866,242.558,568.571,249.366,584.195,252.916z"/>
			<path style="fill:#A02749;" d="M573.63,287.299c-19.32-4.39-29.602-28.606-27.61-48.336c-3.608,4.547-6.378,10.074-8.108,16.237
				c-7.367,26.234,13.946,43.878,32.036,47.99c18.091,4.111,39.125,6.075,48.857-28.583c1.377-4.904,1.97-9.267,1.954-13.186
				C611.071,276.632,591.162,291.283,573.63,287.299z"/>
			<polygon style="fill:#E0C794;" points="583.503,306.526 578.832,338.237 580.299,338.57 588.375,308.401 			"/>
			<polygon style="fill:#E0C794;" points="549.436,298.785 542.65,330.015 544.117,330.348 554.258,300.649 			"/>
			<polygon style="fill:#E0C794;" points="597.289,309.659 592.767,341.404 591.219,341.052 591.925,309.208 			"/>
			<polygon style="fill:#E0C794;" points="541.767,297.042 529.205,326.96 530.671,327.293 546.453,298.875 			"/>
			<path style="fill:#CE526A;" d="M628.751,271.746c-8.993-9.212-29.93,14.449-37.071,26.908l-12.874-2.926l-4.889-1.111
				l-20.536-4.667c-0.439-14.182-7.85-44.285-20.254-39.935c-12.404,4.35,6.067,51.561,6.067,51.561l31.575,7.175l4.118,0.936
				l23.914,5.434C598.799,315.123,637.743,280.959,628.751,271.746z"/>
			<path style="fill:#BC3958;" d="M629.907,277.11c-1.289,1.991-2.685,4.012-4.182,6.041
				c-11.703,15.856-25.052,26.086-29.817,22.851c-2.748-1.866-2.035-7.808,1.301-15.542c-2.236,2.939-4.145,5.778-5.53,8.195
				l-0.257-0.059c0.703,1.084,0.971,2.151,0.692,3.145c-1.169,4.165-11.275,5.46-22.572,2.893
				c-11.296-2.567-19.506-8.024-18.336-12.189c0.279-0.993,1.079-1.818,2.269-2.471l-0.096-0.022
				c-0.061-1.981-0.263-4.279-0.591-6.744c-0.63,6.025-2.348,10.044-5.042,10.695c-5.626,1.361-13.366-12.447-17.289-30.839
				c-0.523-2.454-0.95-4.864-1.287-7.204c-2.485,13.745,10.022,45.717,10.022,45.717l31.575,7.175l4.118,0.936l23.914,5.434
				C598.799,315.123,627.322,290.099,629.907,277.11z"/>
			<polygon style="fill:#A02749;" points="600.799,257.491 603.003,258.606 601.931,265.934 604.794,259.013 608.254,258.878 
				604.994,257.728 606.387,250.064 603.562,257.198 			"/>
			<polygon style="fill:#A02749;" points="572.807,269.915 575.012,271.03 573.94,278.358 576.803,271.437 580.263,271.302 
				577.002,270.152 578.396,262.487 575.571,269.622 			"/>
			<polygon style="fill:#A02749;" points="555.768,245.389 557.972,246.504 556.9,253.832 559.763,246.911 563.224,246.777 
				559.963,245.626 561.356,237.962 558.531,245.096 			"/>
		</g>
		<polygon style="fill:#F9B443;" points="641.17,283 637.17,269 632.17,291 		"/>
		<polygon style="fill:#F9B443;" points="513.17,252 517.17,266 522.17,244 		"/>
		<g>
			<path style="fill:#FFFFFF;" d="M487.574,387.666l4.635-19.077l11.992,3.085c1.427,0.367,2.177,1.603,1.84,2.993l-1.066,4.388
				c-0.338,1.39-1.71,1.992-3.027,1.653l-0.125,0.518c1.316,0.339,2.252,1.535,1.907,2.952l-1.172,4.824
				c-0.338,1.39-1.564,2.117-2.991,1.75L487.574,387.666z M494.743,384.443l2.387,0.613l0.636-2.616l-2.387-0.614L494.743,384.443z
				 M499.441,375.546l-2.387-0.614l-0.517,2.126l2.387,0.614L499.441,375.546z"/>
			<path style="fill:#FFFFFF;" d="M522.945,376.497l-4.635,19.077l-11.992-3.086c-1.427-0.367-2.176-1.603-1.838-2.992l4.059-16.706
				l6.009,1.546l-3.476,14.309l2.388,0.613l3.476-14.308L522.945,376.497z"/>
			<path style="fill:#FFFFFF;" d="M523.742,379.221l0.576-2.371l6.01,1.547l-0.347,7.787l0.44,0.113l3.283-7.031l5.981,1.539
				l-0.576,2.371l-7.486,10.293l-1.265,5.205l-5.982-1.539l1.265-5.205L523.742,379.221z"/>
			<path style="fill:#FFFFFF;" d="M562.021,395.932l0.772-6.663l0.576-2.371l5.543,1.427l-4.635,19.077l-6.366-1.639l-0.688-9.529
				l-0.467-0.12l-0.794,6.629l-0.576,2.371l-5.516-1.419l4.635-19.077l6.366,1.638l0.654,9.55L562.021,395.932z"/>
			<path style="fill:#FFFFFF;" d="M568.889,408.588c-1.428-0.367-2.177-1.603-1.839-2.993l3.483-14.335
				c0.337-1.39,1.563-2.117,2.99-1.75l9.576,2.465c1.428,0.367,2.178,1.602,1.84,2.992l-3.482,14.335
				c-0.338,1.39-1.564,2.116-2.992,1.749L568.889,408.588z M575.953,395.232l-2.31,9.51l2.387,0.615l2.31-9.512L575.953,395.232z"/>
			<path style="fill:#FFFFFF;" d="M600.006,396.324l-0.75,9.565l0.495,0.128l2.231-9.185l5.845,1.504l-0.575,2.371l-6.008,16.205
				l-6.724-1.73l0.366-7.868l-0.411-0.107l-3.275,7.121l-6.696-1.723l2.084-17.215l0.575-2.371l5.873,1.512l-2.231,9.184l0.466,0.12
				l3.714-8.803L600.006,396.324z"/>
		</g>
		<polygon style="fill:#343838;" points="610.17,347 512.17,322 555.17,340 		"/>
		<g>
			<path style="fill:#E24450;" d="M561.151,178.21c1.28,0.299,2.211,0.895,2.795,1.789c0.583,0.895,0.736,1.985,0.462,3.27
				l-0.616,2.879c-0.181,0.845-0.445,1.472-0.794,1.88c-0.348,0.409-0.803,0.659-1.364,0.75c0.524,0.345,0.885,0.798,1.081,1.362
				c0.196,0.564,0.197,1.304,0.001,2.22l-0.706,3.302c-0.294,1.374-0.893,2.339-1.795,2.895c-0.902,0.557-1.994,0.686-3.273,0.386
				l-4.451-1.04l4.423-20.684L561.151,178.21z M555.38,196.165l1.866,0.436c1.279,0.299,2.069-0.256,2.37-1.665l0.679-3.17
				c0.158-0.739,0.128-1.296-0.09-1.671c-0.22-0.374-0.685-0.645-1.395-0.811l-1.866-0.436L555.38,196.165z M557.391,186.761
				l1.706,0.398c0.676,0.158,1.185,0.129,1.53-0.087c0.345-0.215,0.594-0.684,0.749-1.406l0.57-2.668
				c0.139-0.651,0.098-1.198-0.126-1.639c-0.224-0.44-0.672-0.739-1.347-0.897l-1.653-0.386L557.391,186.761z"/>
			<path style="fill:#E24450;" d="M574.531,181.336l-0.503,2.351l-4.451-1.04l-1.39,6.498l3.146,0.735l-0.503,2.351l-3.146-0.735
				l-1.525,7.133l4.451,1.04l-0.502,2.351l-6.904-1.613l4.424-20.684L574.531,181.336z"/>
			<path style="fill:#E24450;" d="M580.476,182.336c1.261,0.295,2.169,0.896,2.721,1.801c0.552,0.905,0.699,1.966,0.439,3.182
				l-0.158,0.739l-2.266-0.529l0.119-0.555c0.128-0.599,0.069-1.111-0.176-1.539c-0.244-0.427-0.65-0.706-1.219-0.84
				c-0.658-0.154-1.188-0.051-1.592,0.308c-0.403,0.359-0.67,0.846-0.802,1.462c-0.109,0.511-0.119,1.012-0.029,1.505
				c0.091,0.492,0.262,1.026,0.512,1.603c0.158,0.389,0.364,0.843,0.617,1.365c0.252,0.521,0.51,1.066,0.77,1.636
				c0.261,0.57,0.51,1.127,0.747,1.673c0.238,0.546,0.439,1.041,0.606,1.486c0.27,0.748,0.436,1.434,0.498,2.059
				c0.062,0.624,0.013,1.316-0.149,2.073c-0.327,1.532-0.926,2.665-1.79,3.395c-0.866,0.732-2.018,0.93-3.458,0.594
				c-0.693-0.162-1.288-0.413-1.784-0.75c-0.498-0.339-0.893-0.731-1.189-1.18c-0.295-0.448-0.493-0.943-0.593-1.484
				c-0.098-0.54-0.087-1.092,0.034-1.656l0.237-1.11l2.14,1.11l-0.107,0.502c-0.105,0.493-0.023,0.965,0.244,1.415
				c0.267,0.451,0.712,0.749,1.335,0.895c0.674,0.157,1.221,0.063,1.64-0.282c0.42-0.346,0.713-0.906,0.879-1.681
				c0.102-0.475,0.129-0.977,0.084-1.505c-0.046-0.528-0.202-1.138-0.464-1.828c-0.131-0.345-0.305-0.737-0.519-1.175
				c-0.213-0.438-0.438-0.897-0.67-1.377c-0.233-0.48-0.463-0.963-0.684-1.45c-0.224-0.486-0.418-0.952-0.583-1.398
				c-0.401-1.092-0.634-2.03-0.7-2.813c-0.066-0.782-0.027-1.508,0.116-2.178c0.293-1.373,0.912-2.371,1.857-2.992
				C578.083,182.198,579.196,182.037,580.476,182.336z"/>
			<path style="fill:#E24450;" d="M592.685,185.578l-0.503,2.352l-2.347-0.549l-3.92,18.333l-2.453-0.573l3.921-18.333l-2.345-0.548
				l0.503-2.351L592.685,185.578z"/>
			<path style="fill:#E24450;" d="M603.719,188.156c1.28,0.299,2.21,0.923,2.791,1.872c0.581,0.949,0.697,2.233,0.351,3.854
				l-0.645,3.012c-0.346,1.621-0.975,2.731-1.887,3.331c-0.912,0.602-2.008,0.752-3.288,0.453l-1.865-0.436l-1.745,8.163
				l-2.453-0.573l4.423-20.684L603.719,188.156z M599.679,197.891l1.679,0.392c1.28,0.299,2.079-0.3,2.399-1.797l0.712-3.328
				c0.319-1.497-0.159-2.395-1.439-2.694l-1.679-0.392L599.679,197.891z"/>
			<path style="fill:#E24450;" d="M614.167,190.598c1.28,0.299,2.211,0.895,2.794,1.789c0.583,0.895,0.737,1.985,0.462,3.27
				l-0.615,2.879c-0.177,0.828-0.439,1.442-0.786,1.841c-0.347,0.4-0.782,0.65-1.308,0.749c0.471,0.331,0.796,0.768,0.979,1.31
				c0.182,0.542,0.183,1.236,0.002,2.081l-1.661,7.767l-2.426-0.567l1.679-7.846c0.139-0.652,0.11-1.144-0.09-1.477
				c-0.199-0.333-0.672-0.587-1.418-0.762l-1.813-0.424l-2.062,9.643l-2.4-0.561l4.424-20.684L614.167,190.598z M610.413,199.123
				l1.652,0.386c0.729,0.17,1.262,0.143,1.6-0.084c0.337-0.227,0.577-0.674,0.721-1.343l0.576-2.694
				c0.298-1.392-0.193-2.237-1.473-2.536l-1.652-0.386L610.413,199.123z"/>
			<path style="fill:#E24450;" d="M623.15,192.697l-4.424,20.684l-2.451-0.573l4.423-20.685L623.15,192.697z"/>
			<path style="fill:#E24450;" d="M624.28,210.712c-0.128,0.599-0.06,1.086,0.206,1.462c0.263,0.376,0.662,0.627,1.195,0.751
				c0.533,0.125,1,0.077,1.403-0.144c0.4-0.221,0.666-0.63,0.794-1.228l0.09-0.423l2.391-0.051l-0.227,1.057
				c-0.136,0.634-0.368,1.176-0.697,1.626c-0.33,0.45-0.719,0.813-1.17,1.086c-0.451,0.274-0.948,0.443-1.494,0.51
				c-0.546,0.067-1.112,0.032-1.699-0.105c-0.568-0.133-1.082-0.35-1.54-0.652c-0.457-0.301-0.835-0.675-1.13-1.124
				c-0.297-0.448-0.498-0.948-0.604-1.5c-0.106-0.552-0.092-1.145,0.044-1.779l2.831-13.234c0.135-0.634,0.363-1.177,0.685-1.629
				c0.32-0.452,0.705-0.816,1.156-1.089c0.45-0.273,0.952-0.443,1.507-0.508c0.556-0.064,1.144-0.024,1.766,0.121
				c1.244,0.291,2.152,0.887,2.725,1.788c0.571,0.901,0.723,1.986,0.451,3.254l-0.146,0.687l-2.266-0.53l0.136-0.634
				c0.128-0.599,0.067-1.084-0.178-1.456c-0.249-0.372-0.647-0.623-1.198-0.752c-0.568-0.133-1.049-0.088-1.44,0.135
				c-0.393,0.223-0.654,0.633-0.782,1.232L624.28,210.712z"/>
			<path style="fill:#E24450;" d="M642.608,197.244l-0.503,2.351l-4.451-1.04l-1.39,6.499l3.146,0.735l-0.503,2.351l-3.146-0.735
				l-1.525,7.133l4.451,1.04l-0.502,2.351l-6.904-1.613l4.424-20.684L642.608,197.244z"/>
		</g>
	</g>
	<g>
		<path style="fill:#89893F;" d="M176.754,441.935l1.274,0.351c1.235,5.807-4.902,8.985-4.902,8.985
			S170.888,442.777,176.754,441.935z"/>
		<path style="fill:#AAA744;" d="M174.443,439.339c0.474-1.169-2.315-11.597-8.954-8.843c-6.639,2.754-7.242,9.01-7.242,9.01
			s1.952,2.374,6.285-0.113C172.522,434.806,174.443,439.339,174.443,439.339z"/>
		<g>
			<path style="fill:#89893F;" d="M182.45,461.263c0.48-4.015,1.634-6.257,2.561-8.058c1.064-2.068,1.984-3.854,0.837-6.711
				c-1.759-4.385-6.497-5.479-7.975-5.717c-0.53-0.534-1.789-1.998-1.847-3.897c-0.05-1.615,0.778-3.251,2.461-4.863
				c5.505-5.271,2.742-13.424,0.512-16.999l-2.098,1.33c0.219,0.352,5.283,8.683-0.12,13.857c-2.229,2.133-3.316,4.416-3.232,6.786
				c0.126,3.532,2.865,5.842,2.982,5.938l0.293,0.243l0.378,0.036c0.045,0.004,4.868,0.532,6.35,4.225
				c0.718,1.79,0.261,2.677-0.74,4.621c-0.966,1.876-2.289,4.446-2.822,8.911L182.45,461.263z"/>
		</g>
		<path style="fill:#AAA744;" d="M178.9,415.27l-1.68,1.389c1.089,6.076,11.607,3.595,11.607,3.595S187.861,410.999,178.9,415.27z"
			/>
		<path style="fill:#AAA744;" d="M185.461,447.629c-1.127-1.054-2.848-13.926,6.355-14.168c9.204-0.242,12.937,6.357,12.937,6.357
			s-1.171,3.581-7.51,2.978C185.553,441.684,185.461,447.629,185.461,447.629z"/>
		<path style="fill:#772639;" d="M181.642,458.666c0,0,4.218-0.106,8.753,5.745l-16.874,0.745
			C174.681,461.964,181.642,458.666,181.642,458.666z"/>
		<path style="fill:#995030;" d="M172.561,463.378c1.003-0.604,18.462-0.838,19.159,0.217c0.698,1.056-2.641,18.453-3.053,20.651
			l-14.121,0.221C174.546,484.466,171.552,463.985,172.561,463.378z"/>
		<path style="fill:#C9AB97;" d="M204.184,546.228c-27.861,0-41.495-27.13-31.122-61.602h-32.307c0,0-13.638,61.602,34.031,61.602
			C184.864,546.228,204.184,546.228,204.184,546.228z"/>
		<path style="fill:#DDC4B1;" d="M209.695,543.356c-29.648,0-41.318-24.258-30.279-58.729h-34.379c0,0-14.861,59.155,29.749,59.155
			C185.882,543.781,209.695,543.356,209.695,543.356z"/>
		<path style="fill:#C9AB97;" d="M175.335,508.939c-12.004-4.392-23.55-7.017-32.829-7.307c0.406-9.697,2.531-17.005,2.531-17.005
			h34.379C176.578,493.487,175.252,501.666,175.335,508.939z"/>
		<path style="fill:#C9AB97;" d="M172.888,543.781c30.573,0,42.607-25.218,31.223-59.262h35.451c0,0,17.191,47.091-30.247,59.262
			C190.711,543.781,172.888,543.781,172.888,543.781z"/>
		<path style="fill:#EDD6C3;" d="M174.681,546.228c29.74,0,44.294-27.13,33.22-61.602h34.486c0,0,14.87,61.602-29.424,61.602
			C202.207,546.228,174.681,546.228,174.681,546.228z"/>
		<path style="fill:#EFDFD3;" d="M202.954,533.805c6.315-7.752,9.377-18.665,8.484-31.399c4.966-1.83,10.493-3.372,16.386-4.491
			c5.715-1.086,11.251-1.673,16.402-1.815c1.06,10.14,1.178,24.966-4.826,35.867c-1.64,0.391-3.312,0.754-5.018,1.079
			C222.507,535.302,211.389,535.425,202.954,533.805z"/>
		
			<rect x="139.141" y="482.924" transform="matrix(-1 -1.224647e-16 1.224647e-16 -1 383.3211 970.3163)" style="fill:#772639;" width="105.04" height="4.469"/>
		<rect x="139.141" y="482.924" style="fill:#59192A;" width="72.03" height="4.469"/>
		<path style="fill:#BA5735;" d="M191.719,463.594c0.407,0.616-0.561,6.802-1.52,12.281c-1.588,2.903-3.795,4.707-6.238,4.707
			c-4.834,0-8.753-7.05-8.753-15.746c0-0.608,0.024-1.205,0.061-1.795C180.449,462.733,191.176,462.772,191.719,463.594z"/>
		<path style="fill:#E26342;" d="M189.671,465.157c-0.461,4.277-1.831,7.636-3.06,7.501c-1.229-0.135-1.852-3.712-1.391-7.989
			c0.014-0.13,0.031-0.255,0.047-0.383c1.781,0.035,3.382,0.114,4.463,0.247C189.712,464.74,189.694,464.947,189.671,465.157z"/>
		<path style="fill:#E8DE92;" d="M176.606,417.119l3.243-2.234c0,0,5.458-2.952,1.819-7.9c-3.638-4.947-9.096-2.633-12.26,1.117
			C166.244,411.853,169.725,419.912,176.606,417.119z"/>
		<path style="fill:#D3C676;" d="M169.408,408.102c0.186-0.22,0.381-0.435,0.582-0.644c0.41,3.793,3.295,6.735,6.8,6.735
			c2.664,0,4.967-1.701,6.102-4.181c0.213,3.096-3.044,4.873-3.044,4.873l-3.243,2.234
			C169.725,419.912,166.244,411.853,169.408,408.102z"/>
		<path style="fill:#89893F;" d="M187.235,435.168c1.137,3.795,6.973,6.688,14.022,6.688c0.59,0,1.169-0.027,1.74-0.066
			c-1.125,0.709-2.921,1.276-5.755,1.007c-11.69-1.112-11.782,4.833-11.782,4.833C184.58,446.805,183.335,438.755,187.235,435.168z"
			/>
		<path style="fill:#89893F;" d="M161.976,440.379c5.017-2.528,7.828-7.118,6.33-10.296c4.609,0.676,6.537,8.268,6.137,9.255
			c0,0-1.921-4.533-9.911,0.054c-1.018,0.584-1.899,0.894-2.66,1.035C161.907,440.411,161.942,440.397,161.976,440.379z"/>
	</g>
</g>
</svg>
